<svg aria-hidden="true" style="position: absolute; width: 0; height: 0; overflow: hidden;" version="1.1" xmlns="http://www.w3.org/2000/svg" xmlns:xlink="http://www.w3.org/1999/xlink">
<defs>
<symbol id="icon-cheveron-right" viewBox="0 0 20 20">
<title>cheveron-right</title>
<path d="M12.95 10.707l0.707-0.707-5.657-5.657-1.414 1.414 4.242 4.243-4.242 4.243 1.414 1.414 4.95-4.95z"></path>
</symbol>
<symbol id="icon-list" viewBox="0 0 20 20">
<title>list</title>
<path d="M1 4h2v2h-2v-2zM5 4h14v2h-14v-2zM1 9h2v2h-2v-2zM5 9h14v2h-14v-2zM1 14h2v2h-2v-2zM5 14h14v2h-14v-2z"></path>
</symbol>
<symbol id="icon-play" viewBox="0 0 20 20">
<title>play</title>
<path d="M4 4l12 6-12 6z"></path>
</symbol>
<symbol id="icon-window" viewBox="0 0 20 20">
<title>window</title>
<path d="M0 3c0-1.1 0.9-2 2-2h16c1.105 0 2 0.895 2 2v0 14c0 1.105-0.895 2-2 2v0h-16c-1.105 0-2-0.895-2-2v0-14zM2 5v12h16v-12h-16z"></path>
</symbol>
<symbol id="icon-user-circle-o" viewBox="0 0 28 28">
<title>user-circle-o</title>
<path d="M14 0c7.734 0 14 6.266 14 14 0 7.688-6.234 14-14 14-7.75 0-14-6.297-14-14 0-7.734 6.266-14 14-14zM23.672 21.109c1.453-2 2.328-4.453 2.328-7.109 0-6.609-5.391-12-12-12s-12 5.391-12 12c0 2.656 0.875 5.109 2.328 7.109 0.562-2.797 1.922-5.109 4.781-5.109 1.266 1.234 2.984 2 4.891 2s3.625-0.766 4.891-2c2.859 0 4.219 2.312 4.781 5.109zM20 11c0-3.313-2.688-6-6-6s-6 2.688-6 6 2.688 6 6 6 6-2.688 6-6z"></path>
</symbol>
<symbol id="icon-question-circle-o" viewBox="0 0 24 28">
<title>question-circle-o</title>
<path d="M13.75 18.75v2.5c0 0.281-0.219 0.5-0.5 0.5h-2.5c-0.281 0-0.5-0.219-0.5-0.5v-2.5c0-0.281 0.219-0.5 0.5-0.5h2.5c0.281 0 0.5 0.219 0.5 0.5zM17.75 11c0 2.219-1.547 3.094-2.688 3.734-0.812 0.469-1.313 0.766-1.313 1.266v0.5c0 0.281-0.219 0.5-0.5 0.5h-2.5c-0.281 0-0.5-0.219-0.5-0.5v-1.062c0-1.922 1.375-2.531 2.484-3.031 0.938-0.438 1.516-0.734 1.516-1.437 0-0.906-1.141-1.578-2.172-1.578-0.547 0-1.125 0.172-1.484 0.422-0.344 0.234-0.672 0.578-1.25 1.297-0.094 0.125-0.234 0.187-0.391 0.187-0.109 0-0.219-0.031-0.297-0.094l-1.687-1.281c-0.203-0.156-0.25-0.453-0.109-0.672 1.281-2.016 3.078-3 5.453-3v0c2.562 0 5.437 2.031 5.437 4.75zM12 4c-5.516 0-10 4.484-10 10s4.484 10 10 10 10-4.484 10-10-4.484-10-10-10zM24 14c0 6.625-5.375 12-12 12s-12-5.375-12-12 5.375-12 12-12v0c6.625 0 12 5.375 12 12z"></path>
</symbol>
<symbol id="icon-redo2" viewBox="0 0 32 32">
<title>redo2</title>
<path d="M18 7.762v-7.762l12 12-12 12v-7.932c-13.961-0.328-13.362 9.493-9.808 15.932-8.772-9.482-6.909-24.674 9.808-24.238z"></path>
</symbol>
<symbol id="icon-spinner9" viewBox="0 0 32 32">
<title>spinner9</title>
<path d="M16 0c-8.711 0-15.796 6.961-15.995 15.624 0.185-7.558 5.932-13.624 12.995-13.624 7.18 0 13 6.268 13 14 0 1.657 1.343 3 3 3s3-1.343 3-3c0-8.837-7.163-16-16-16zM16 32c8.711 0 15.796-6.961 15.995-15.624-0.185 7.558-5.932 13.624-12.995 13.624-7.18 0-13-6.268-13-14 0-1.657-1.343-3-3-3s-3 1.343-3 3c0 8.837 7.163 16 16 16z"></path>
</symbol>
<symbol id="icon-search" viewBox="0 0 32 32">
<title>search</title>
<path d="M31.008 27.231l-7.58-6.447c-0.784-0.705-1.622-1.029-2.299-0.998 1.789-2.096 2.87-4.815 2.87-7.787 0-6.627-5.373-12-12-12s-12 5.373-12 12 5.373 12 12 12c2.972 0 5.691-1.081 7.787-2.87-0.031 0.677 0.293 1.515 0.998 2.299l6.447 7.58c1.104 1.226 2.907 1.33 4.007 0.23s0.997-2.903-0.23-4.007zM12 20c-4.418 0-8-3.582-8-8s3.582-8 8-8 8 3.582 8 8-3.582 8-8 8z"></path>
</symbol>
<symbol id="icon-bin" viewBox="0 0 32 32">
<title>bin</title>
<path d="M4 10v20c0 1.1 0.9 2 2 2h18c1.1 0 2-0.9 2-2v-20h-22zM10 28h-2v-14h2v14zM14 28h-2v-14h2v14zM18 28h-2v-14h2v14zM22 28h-2v-14h2v14z"></path>
<path d="M26.5 4h-6.5v-2.5c0-0.825-0.675-1.5-1.5-1.5h-7c-0.825 0-1.5 0.675-1.5 1.5v2.5h-6.5c-0.825 0-1.5 0.675-1.5 1.5v2.5h26v-2.5c0-0.825-0.675-1.5-1.5-1.5zM18 4h-6v-1.975h6v1.975z"></path>
</symbol>
<symbol id="icon-plus" viewBox="0 0 32 32">
<title>plus</title>
<path d="M31 12h-11v-11c0-0.552-0.448-1-1-1h-6c-0.552 0-1 0.448-1 1v11h-11c-0.552 0-1 0.448-1 1v6c0 0.552 0.448 1 1 1h11v11c0 0.552 0.448 1 1 1h6c0.552 0 1-0.448 1-1v-11h11c0.552 0 1-0.448 1-1v-6c0-0.552-0.448-1-1-1z"></path>
</symbol>
<symbol id="icon-checkmark" viewBox="0 0 32 32">
<title>checkmark</title>
<path d="M27 4l-15 15-7-7-5 5 12 12 20-20z"></path>
</symbol>
<symbol id="icon-checkmark2" viewBox="0 0 32 32">
<title>checkmark2</title>
<path d="M12.42 28.678l-12.433-12.238 6.168-6.071 6.265 6.167 13.426-13.214 6.168 6.071-19.594 19.285zM3.372 16.441l9.048 8.905 16.208-15.953-2.782-2.739-13.426 13.214-6.265-6.167-2.782 2.739z"></path>
</symbol>
<symbol id="icon-paragraph-left" viewBox="0 0 32 32">
<title>paragraph-left</title>
<path d="M0 2h32v4h-32zM0 8h20v4h-20zM0 20h20v4h-20zM0 14h32v4h-32zM0 26h32v4h-32z"></path>
</symbol>
<symbol id="icon-embed" viewBox="0 0 32 32">
<title>embed</title>
<path d="M18 23l3 3 10-10-10-10-3 3 7 7z"></path>
<path d="M14 9l-3-3-10 10 10 10 3-3-7-7z"></path>
</symbol>
<symbol id="icon-windows8" viewBox="0 0 32 32">
<title>windows8</title>
<path d="M0.011 16l-0.011-9.752 12-1.63v11.382zM14 4.328l15.996-2.328v14h-15.996zM30 18l-0.004 14-15.996-2.25v-11.75zM12 29.495l-11.99-1.644-0.001-9.851h11.991z"></path>
</symbol>
<symbol id="icon-file-excel" viewBox="0 0 32 32">
<title>file-excel</title>
<path d="M23.22 12h-4.228l-2.992 4.407-2.992-4.407h-4.228l5.068 7.577-5.718 8.423h7.87v-2.862h-1.567l1.567-2.344 3.481 5.205h4.389l-5.718-8.423 5.068-7.577z"></path>
<path d="M28.681 7.159c-0.694-0.947-1.662-2.053-2.724-3.116s-2.169-2.030-3.116-2.724c-1.612-1.182-2.393-1.319-2.841-1.319h-15.5c-1.378 0-2.5 1.121-2.5 2.5v27c0 1.378 1.121 2.5 2.5 2.5h23c1.378 0 2.5-1.122 2.5-2.5v-19.5c0-0.448-0.137-1.23-1.319-2.841v0zM24.543 5.457c0.959 0.959 1.712 1.825 2.268 2.543h-4.811v-4.811c0.718 0.556 1.584 1.309 2.543 2.268v0zM28 29.5c0 0.271-0.229 0.5-0.5 0.5h-23c-0.271 0-0.5-0.229-0.5-0.5v-27c0-0.271 0.229-0.5 0.5-0.5 0 0 15.499-0 15.5 0v7c0 0.552 0.448 1 1 1h7v19.5z"></path>
</symbol>
</defs>
</svg>
